<svg width="381" height="85" viewBox="0 0 381 85" fill="none" xmlns="http://www.w3.org/2000/svg">
<path d="M118.9 13.2C117.5 8 113.4 3.9 108.2 2.5C98.7 0 60.7 0 60.7 0C60.7 0 22.7 0 13.2 2.5C8 3.9 3.9 8 2.5 13.2C0 22.7 0 42.4 0 42.4C0 42.4 0 62.2 2.5 71.6C3.9 76.8 8 80.9 13.2 82.3C22.7 84.8 60.7 84.8 60.7 84.8C60.7 84.8 98.7 84.8 108.2 82.3C113.4 80.9 117.5 76.8 118.9 71.6C121.4 62.1 121.4 42.4 121.4 42.4C121.4 42.4 121.4 22.7 118.9 13.2Z" fill="#EE3124"/>
<path d="M48.5 60.7L80.1 42.5L48.5 24.2V60.7Z" fill="white"/>
<path d="M176.3 77.3C173.9 75.7 172.2 73.2 171.2 69.7C170.2 66.3 169.7 61.7 169.7 56.1V48.4C169.7 42.7 170.3 38.1 171.4 34.6C172.6 31.1 174.4 28.6 176.8 27C179.3 25.4 182.5 24.6 186.5 24.6C190.4 24.6 193.6 25.4 196 27C198.4 28.6 200.1 31.2 201.2 34.6C202.3 38 202.9 42.6 202.9 48.4V56.1C202.9 61.8 202.4 66.3 201.3 69.8C200.2 73.2 198.5 75.8 196.1 77.4C193.7 79 190.4 79.8 186.3 79.8C182 79.7 178.7 78.9 176.3 77.3ZM189.8 69C190.5 67.3 190.8 64.4 190.8 60.5V43.9C190.8 40.1 190.5 37.3 189.8 35.5C189.1 33.7 188 32.9 186.3 32.9C184.7 32.9 183.5 33.8 182.9 35.5C182.2 37.3 181.9 40.1 181.9 43.9V60.5C181.9 64.4 182.2 67.3 182.9 69C183.5 70.7 184.7 71.6 186.4 71.6C187.9 71.6 189.1 70.7 189.8 69Z" fill="white"/>
<path d="M360.8 56.2V58.9C360.8 62.3 360.9 64.9 361.1 66.6C361.3 68.3 361.7 69.6 362.4 70.3C363 71.1 364 71.5 365.4 71.5C367.2 71.5 368.4 70.8 369.1 69.4C369.8 68 370.1 65.7 370.2 62.4L380.5 63C380.6 63.5 380.6 64.1 380.6 64.9C380.6 69.8 379.3 73.5 376.6 75.9C373.9 78.3 370.1 79.5 365.2 79.5C359.3 79.5 355.2 77.6 352.8 73.9C350.4 70.2 349.2 64.5 349.2 56.7V47.4C349.2 39.4 350.4 33.6 352.9 29.9C355.4 26.2 359.6 24.4 365.5 24.4C369.6 24.4 372.8 25.2 375 26.7C377.2 28.2 378.7 30.6 379.6 33.7C380.5 36.9 380.9 41.3 380.9 46.9V56H360.8V56.2ZM362.3 33.8C361.7 34.6 361.3 35.8 361.1 37.5C360.9 39.2 360.8 41.8 360.8 45.3V49.1H369.6V45.3C369.6 41.9 369.5 39.3 369.3 37.5C369.1 35.7 368.6 34.5 368 33.8C367.4 33.1 366.4 32.7 365.2 32.7C363.9 32.7 362.9 33.1 362.3 33.8Z" fill="white"/>
<path d="M147.1 55.2L133.5 5.9H145.4L150.2 28.2C151.4 33.7 152.3 38.4 152.9 42.3H153.2C153.6 39.5 154.5 34.9 155.9 28.3L160.9 5.9H172.8L159 55.2V78.9H147.2V55.2H147.1Z" fill="white"/>
<path d="M241.5 25.6V78.9H232.1L231.1 72.4H230.8C228.3 77.3 224.4 79.8 219.3 79.8C215.8 79.8 213.2 78.6 211.5 76.3C209.8 74 209 70.4 209 65.4V25.6H221V64.7C221 67.1 221.3 68.8 221.8 69.8C222.3 70.8 223.2 71.3 224.4 71.3C225.4 71.3 226.4 71 227.4 70.3C228.4 69.7 229.1 68.9 229.5 67.9V25.6H241.5Z" fill="white"/>
<path d="M303 25.6V78.9H293.6L292.6 72.4H292.3C289.8 77.3 285.9 79.8 280.8 79.8C277.3 79.8 274.7 78.6 273 76.3C271.3 74 270.5 70.4 270.5 65.4V25.6H282.5V64.7C282.5 67.1 282.8 68.8 283.3 69.8C283.8 70.8 284.7 71.3 285.9 71.3C286.9 71.3 287.9 71 288.9 70.3C289.9 69.7 290.6 68.9 291 67.9V25.6H303Z" fill="white"/>
<path d="M274.1 15.6H262.2V78.9H250.5V15.7H238.6V6.1H274.1V15.6Z" fill="white"/>
<path d="M342.7 34.1C342 30.7 340.8 28.3 339.2 26.8C337.6 25.3 335.3 24.5 332.5 24.5C330.3 24.5 328.2 25.1 326.3 26.4C324.4 27.6 322.9 29.3 321.9 31.3H321.8V3.2H310.2V78.9H320.1L321.3 73.9H321.6C322.5 75.7 323.9 77.1 325.8 78.2C327.7 79.2 329.7 79.8 332 79.8C336.1 79.8 339 77.9 340.9 74.2C342.8 70.5 343.8 64.6 343.8 56.7V48.3C343.8 42.1 343.4 37.5 342.7 34.1ZM331.7 55.8C331.7 59.7 331.5 62.7 331.2 64.9C330.9 67.1 330.3 68.7 329.6 69.6C328.8 70.5 327.8 71 326.6 71C325.6 71 324.7 70.8 323.9 70.3C323.1 69.8 322.4 69.1 321.9 68.2V38C322.3 36.6 323 35.4 324 34.4C325 33.5 326.1 33 327.2 33C328.4 33 329.4 33.5 330 34.4C330.7 35.4 331.1 37 331.4 39.2C331.7 41.5 331.8 44.7 331.8 48.8V55.8H331.7Z" fill="white"/>
</svg>
